<svg width="24" height="24" viewBox="0 0 24 24" fill="none" xmlns="http://www.w3.org/2000/svg">
<path fill-rule="evenodd" clip-rule="evenodd" d="M6.72107 0C7.13528 0 7.47107 0.335786 7.47107 0.75V2.34538H13.0033V0.75C13.0033 0.335786 13.3391 0 13.7533 0C14.1676 0 14.5033 0.335786 14.5033 0.75V2.34538H17.2695C18.9787 2.34538 20.3636 3.73162 20.3636 5.44076V7.78614C20.3636 8.20036 20.0278 8.53614 19.6136 8.53614C19.1994 8.53614 18.8636 8.20036 18.8636 7.78614V5.44076C18.8636 4.55927 18.1495 3.84538 17.2695 3.84538H14.5033V5.44076C14.5033 5.85498 14.1676 6.19076 13.7533 6.19076C13.3391 6.19076 13.0033 5.85498 13.0033 5.44076V3.84538H7.47107V5.44076C7.47107 5.85498 7.13528 6.19076 6.72107 6.19076C6.30686 6.19076 5.97107 5.85498 5.97107 5.44076V3.84538H3.20493C2.32493 3.84538 1.61084 4.55927 1.61084 5.44076V9.38152H6.72107C7.13528 9.38152 7.47107 9.71731 7.47107 10.1315C7.47107 10.5457 7.13528 10.8815 6.72107 10.8815H1.61084V19.513C1.61084 20.3945 2.32493 21.1084 3.20493 21.1084H5.54902C5.96324 21.1084 6.29902 21.4442 6.29902 21.8584C6.29902 22.2726 5.96324 22.6084 5.54902 22.6084H3.20493C1.49572 22.6084 0.11084 21.2222 0.11084 19.513V10.1315V5.44076C0.11084 3.73162 1.49572 2.34538 3.20493 2.34538H5.97107V0.75C5.97107 0.335786 6.30686 0 6.72107 0ZM9.81511 11.3042C9.81511 10.89 9.47932 10.5542 9.06511 10.5542C8.6509 10.5542 8.31511 10.89 8.31511 11.3042V14.6033V14.6168V14.8223C8.31511 15.2365 8.6509 15.5723 9.06511 15.5723H12.5812C12.9955 15.5723 13.3312 15.2365 13.3312 14.8223C13.3312 14.408 12.9955 14.0723 12.5812 14.0723H10.9409C12.2093 13.0829 13.4081 12.299 14.9584 12.1065C16.2652 11.9442 17.5927 12.1622 18.7377 12.7209C19.8822 13.2793 20.7712 14.1416 21.2888 15.1616C21.4762 15.531 21.9276 15.6785 22.297 15.4911C22.6664 15.3037 22.8139 14.8523 22.6265 14.4829C21.9494 13.1484 20.8091 12.0625 19.3955 11.3728C17.9824 10.6833 16.3614 10.4208 14.7736 10.6179C12.7562 10.8684 11.2024 11.9447 9.81511 13.0443V11.3042ZM10.906 19.1737C10.7186 18.8043 10.2672 18.6568 9.89781 18.8442C9.52842 19.0316 9.3809 19.483 9.56832 19.8524C10.2454 21.1869 11.3857 22.2727 12.7993 22.9625C14.2124 23.6519 15.8334 23.9145 17.4212 23.7173C19.4386 23.4668 20.9924 22.3905 22.3797 21.291V23.0311C22.3797 23.4453 22.7155 23.7811 23.1297 23.7811C23.5439 23.7811 23.8797 23.4453 23.8797 23.0311V19.7319V19.7185V19.513C23.8797 19.0988 23.5439 18.763 23.1297 18.763H19.6135C19.1993 18.763 18.8635 19.0988 18.8635 19.513C18.8635 19.9272 19.1993 20.263 19.6135 20.263H21.2539C19.9854 21.2524 18.7867 22.0363 17.2363 22.2288C15.9296 22.391 14.6021 22.173 13.4571 21.6144C12.3125 21.0559 11.4235 20.1937 10.906 19.1737Z" fill="#0F4787"/>
</svg>
